Patient4_TMGait_0pt6_01_right_06_GRF.mot
version=1
nRows=59
nColumns=19
inDegrees=no
endheader
time	F1x	F1y	F1z	M1x	M1y	M1z	F2x	F2y	F2z	M2x	M2y	M2z	EC1x	EC1y	EC1z	EC2x	EC2y	EC2z
6.72	0.13178	708.2799	51.3476	-271.5729	-43.5825	602.098	1.5305	5.0519	-8.5974	3.6501	5.9659	3.8131	-0.0592	0.0182	-0.0073	-0.0462	0.0165	0.9585
6.7321	-0.802	705.8234	50.5755	-270.7235	-41.9935	597.1449	0.86262	4.1834	-5.8289	2.7672	4.1386	3.3328	-0.0592	0.0182	-0.0073	-0.0462	0.0165	0.9585
6.7441	-1.2272	704.6329	49.8176	-270.2559	-40.3596	592.8044	0.32297	3.4635	-3.4681	2.0258	2.5582	2.9566	-0.0592	0.0182	-0.0073	-0.0462	0.0165	0.9585
6.7562	-1.0569	705.0682	49.1251	-270.3214	-38.761	589.4588	-0.068145	2.9435	-1.6559	1.4735	1.3327	2.7037	-0.0592	0.0182	-0.0073	-0.0462	0.0165	0.9585
6.7683	-0.28053	707.19	48.5255	-270.967	-37.2244	587.2114	-0.34066	2.6205	-0.39643	1.1081	0.48203	2.5767	-0.0592	0.0182	-0.0073	-0.0462	0.0165	0.9585
6.7804	1.0659	710.8412	48.0024	-272.1536	-35.7222	585.9765	-0.51623	2.4541	0.38376	0.8994	-0.036826	2.5371	-0.0592	0.0182	-0.0073	-0.0462	0.0165	0.9585
6.7924	2.9371	715.7106	47.541	-273.7743	-34.218	585.5344	-0.63753	2.3873	0.79221	0.80248	-0.29338	2.5398	-0.0592	0.0182	-0.0073	-0.0462	0.0165	0.9585
6.8045	5.2901	721.4364	47.1318	-275.6919	-32.6725	585.6258	-0.72753	2.3362	0.93322	0.76384	-0.35988	2.505	-0.0592	0.0182	-0.0073	-0.0462	0.0165	0.9585
6.8166	8.0866	727.6671	46.7836	-277.7646	-31.0659	585.9981	-0.81836	2.2165	0.89857	0.73027	-0.29573	2.369	-0.0592	0.0182	-0.0073	-0.0462	0.0165	0.9585
6.8286	11.2826	734.0836	46.5182	-279.8542	-29.4019	586.4245	-0.91746	1.9268	0.75862	0.64564	-0.1508	2.0396	-0.0592	0.0182	-0.0073	-0.0462	0.0165	0.9585
6.8407	14.8104	740.4163	46.36	-281.8329	-27.7037	586.7183	-1.042	1.3773	0.56547	0.45924	0.039912	1.4423	-0.0592	0.0182	-0.0073	-0.0462	0.0165	0.9585
6.8528	18.6024	746.4227	46.3439	-283.5836	-26.0085	586.7126	-1.1717	0.46642	0.35814	0.1204	0.24245	0.47185	-0.0592	0.0182	-0.0073	-0.0462	0.0165	0.9585
6.8649	22.5765	751.8906	46.5097	-285.0044	-24.3639	586.2642	-1.284	-0.88104	0.16649	-0.40902	0.42565	-0.94305	-0.0592	0.0182	-0.0073	-0.0462	0.0165	0.9585
6.8769	26.6727	756.6534	46.9042	-286.0201	-22.8207	585.2406	-1.3156	-2.706	0.010331	-1.1476	0.55194	-2.8402	-0.0592	0.0182	-0.0073	-0.0462	0.0165	0.9585
6.889	30.8215	760.6179	47.541	-286.6047	-21.408	583.5761	-1.1846	-4.9324	-0.09263	-2.0644	0.57322	-5.1268	-0.0592	0.0182	-0.0073	-0.0462	0.0165	0.9585
6.9011	34.9424	763.773	48.3972	-286.7836	-20.14	581.2721	-0.76697	-7.3257	-0.12831	-3.0578	0.42219	-7.5708	-0.0592	0.0182	-0.0073	-0.0462	0.0165	0.9585
6.9131	38.9506	766.1368	49.4144	-286.6104	-19.0135	578.3738	0.073883	-9.3846	-0.072587	-3.9171	0.013136	-9.6669	-0.0592	0.0182	-0.0073	-0.0462	0.0165	0.9585
6.9252	42.7887	767.7146	50.5238	-286.1427	-18.0146	574.9173	1.4938	-10.2771	0.10623	-4.2918	-0.75087	-10.5902	-0.0592	0.0182	-0.0073	-0.0462	0.0165	0.9585
6.9373	46.4248	768.4579	51.6537	-285.4158	-17.116	570.9065	3.6148	-8.7627	0.44823	-3.6608	-1.9595	-9.1048	-0.0592	0.0182	-0.0073	-0.0462	0.0165	0.9585
6.9494	49.89	768.181	52.7305	-284.4065	-16.2676	566.2336	6.494	-3.1759	0.99365	-1.3233	-3.6682	-3.5504	-0.0592	0.0182	-0.0073	-0.0462	0.0165	0.9585
6.9614	53.2396	766.5103	53.6469	-283.007	-15.3839	560.662	10.026	8.5221	1.7686	3.5745	-5.8499	8.0973	-0.0592	0.0182	-0.0073	-0.0462	0.0165	0.9585
6.9735	56.5612	762.8248	54.2601	-281.0042	-14.3419	553.763	13.8479	28.5158	2.7719	11.9446	-8.3448	28.0024	-0.0592	0.0182	-0.0073	-0.0462	0.0165	0.9585
6.9856	59.9034	756.2374	54.4123	-278.0698	-13.0195	544.9482	17.2067	58.6994	3.9376	24.5751	-10.7714	58.0447	-0.0592	0.0182	-0.0073	-0.0462	0.0165	0.9585
6.9976	63.2567	745.5893	53.9406	-273.7668	-11.313	533.4428	18.8537	99.9602	5.0947	41.8305	-12.4458	99.1187	-0.0592	0.0182	-0.0073	-0.0462	0.0165	0.9585
7.0097	66.4489	729.5045	52.6853	-267.5736	-9.1724	518.3548	17.1608	151.2822	5.9841	63.2715	-12.4468	150.2431	-0.0592	0.0182	-0.0073	-0.0462	0.0165	0.9585
7.0218	69.1707	706.5042	50.5063	-258.9333	-6.6129	498.7362	10.6535	208.8007	6.1594	87.2643	-9.7569	207.5934	-0.0592	0.0182	-0.0073	-0.0462	0.0165	0.9585
7.0339	70.9637	675.2578	47.3372	-247.3481	-3.7616	473.7735	-0.10456	266.402	4.8307	111.2294	-3.8789	265.0964	-0.0592	0.0182	-0.0073	-0.0462	0.0165	0.9585
7.0459	71.3351	634.9516	43.222	-232.5114	-0.84412	443.0037	-12.3157	318.7013	1.737	132.8926	4.282	317.1854	-0.0592	0.0182	-0.0073	-0.0462	0.0165	0.9585
7.058	69.8394	585.5949	38.3594	-214.4097	1.8309	406.5359	-23.8272	362.8004	-2.6974	151.0622	13.3683	360.6948	-0.0592	0.0182	-0.0073	-0.0462	0.0165	0.9585
7.0701	66.2287	528.1547	33.0956	-193.3728	3.928	365.0959	-33.4774	399.2264	-7.7364	165.9774	22.1651	395.9192	-0.0592	0.0182	-0.0073	-0.0462	0.0165	0.9585
7.0821	60.4323	464.5194	27.7913	-170.0696	5.1846	320.0104	-40.9823	430.8327	-12.6338	178.8274	29.8215	425.6743	-0.0592	0.0182	-0.0073	-0.0462	0.0165	0.9585
7.0942	52.6375	397.3585	22.7716	-145.4598	5.4586	273.0765	-46.5919	461.0208	-17.1083	191.0252	36.1762	453.3636	-0.0592	0.0182	-0.0073	-0.0462	0.0165	0.9585
7.1063	43.2769	329.8102	18.2673	-120.6845	4.7736	226.3702	-50.7171	492.849	-21.0737	203.8064	41.3421	482.0384	-0.0592	0.0182	-0.0073	-0.0462	0.0165	0.9585
7.1184	33.0354	265.03	14.44	-96.9083	3.2932	181.9103	-53.7325	528.2139	-24.8742	217.9151	45.8312	513.5981	-0.0592	0.0182	-0.0073	-0.0462	0.0165	0.9585
7.1304	22.7505	205.8489	11.3752	-75.1732	1.2985	141.5007	-55.9517	567.7621	-28.758	233.5814	50.0362	548.733	-0.0592	0.0182	-0.0073	-0.0462	0.0165	0.9585
7.1425	13.3167	154.2421	9.0736	-56.2142	-0.85821	106.3353	-57.5762	610.8221	-33.0508	250.492	54.3681	586.8789	-0.0592	0.0182	-0.0073	-0.0462	0.0165	0.9585
7.1546	5.4123	111.158	7.415	-40.39	-2.8283	76.9761	-58.7404	655.4564	-37.7562	267.8517	58.8982	626.2357	-0.0592	0.0182	-0.0073	-0.0462	0.0165	0.9585
7.1666	-0.57707	76.55	6.2026	-27.6964	-4.3399	53.3369	-59.5984	698.9442	-42.816	284.5729	63.6343	664.2877	-0.0592	0.0182	-0.0073	-0.0462	0.0165	0.9585
7.1787	-4.6265	49.7561	5.2022	-17.898	-5.2263	34.9828	-60.1483	738.5427	-47.9094	299.5912	68.285	698.4585	-0.0592	0.0182	-0.0073	-0.0462	0.0165	0.9585
7.1908	-6.8361	29.8086	4.2489	-10.6373	-5.4301	21.2706	-60.3723	771.9518	-52.6558	312.0491	72.4835	726.6227	-0.0592	0.0182	-0.0073	-0.0462	0.0165	0.9585
7.2029	-7.4327	15.6302	3.2502	-5.5114	-4.9861	11.4988	-60.1012	797.4608	-56.6232	321.3487	75.7647	747.1829	-0.0592	0.0182	-0.0073	-0.0462	0.0165	0.9585
7.2149	-6.7734	6.1607	2.2256	-2.1228	-4.0536	4.9353	-59.1837	814.0858	-59.5237	327.1681	77.8006	759.2712	-0.0592	0.0182	-0.0073	-0.0462	0.0165	0.9585
7.227	-5.4822	0.50301	1.2937	-0.1237	-2.9445	0.97853	-57.4847	821.4529	-61.1961	329.4264	78.3866	762.5499	-0.0592	0.0182	-0.0073	-0.0462	0.0165	0.9585
7.2391	-4.0286	-2.322	0.56839	0.85279	-1.9172	-1.0297	-54.9709	819.9541	-61.6482	328.3127	77.5136	757.4538	-0.0592	0.0182	-0.0073	-0.0462	0.0165	0.9585
7.2511	-2.7053	-3.2265	0.053556	1.1429	-1.0766	-1.7006	-51.6355	810.6504	-60.9934	324.2657	75.2899	744.9954	-0.0592	0.0182	-0.0073	-0.0462	0.0165	0.9585
7.2632	-1.6325	-2.9793	-0.26029	1.0251	-0.46695	-1.5741	-47.6132	795.2538	-59.449	317.9563	71.961	726.7979	-0.0592	0.0182	-0.0073	-0.0462	0.0165	0.9585
7.2753	-0.84238	-2.1548	-0.42003	0.70584	-0.067957	-1.0423	-43.0248	775.9414	-57.3084	310.2251	67.8549	704.8773	-0.0592	0.0182	-0.0073	-0.0462	0.0165	0.9585
7.2874	-0.31107	-1.1325	-0.47465	0.32118	0.16559	-0.36869	-38.1137	755.1028	-54.8536	301.9945	63.3291	681.4615	-0.0592	0.0182	-0.0073	-0.0462	0.0165	0.9585
7.2994	0.0054321	-0.14122	-0.45926	-0.047224	0.2729	0.2983	-33.104	735.081	-52.3766	294.1708	58.7489	658.6972	-0.0592	0.0182	-0.0073	-0.0462	0.0165	0.9585
7.3115	0.16368	0.70676	-0.4167	-0.35861	0.30687	0.89077	-28.2224	717.9553	-50.0996	287.5542	54.4056	638.4869	-0.0592	0.0182	-0.0073	-0.0462	0.0165	0.9585
7.3236	0.20604	1.3747	-0.35794	-0.60116	0.28914	1.3846	-23.6345	705.2107	-48.1998	282.7227	50.5215	622.1478	-0.0592	0.0182	-0.0073	-0.0462	0.0165	0.9585
7.3356	0.16603	1.8669	-0.30693	-0.77908	0.25369	1.7795	-19.444	697.6991	-46.7592	280.0057	47.2062	610.4127	-0.0592	0.0182	-0.0073	-0.0462	0.0165	0.9585
7.3477	0.085747	2.204	-0.25522	-0.8999	0.20352	2.0775	-15.6932	695.614	-45.8169	279.4758	44.5075	603.3999	-0.0592	0.0182	-0.0073	-0.0462	0.0165	0.9585
7.3598	-0.033387	2.4346	-0.22499	-0.97868	0.15945	2.3093	-12.3817	698.5493	-45.3435	280.9714	42.3979	600.7053	-0.0592	0.0182	-0.0073	-0.0462	0.0165	0.9585
7.3719	-0.17287	2.5714	-0.20815	-1.019	0.11635	2.4653	-9.4565	705.6227	-45.2994	284.1387	40.8229	601.522	-0.0592	0.0182	-0.0073	-0.0462	0.0165	0.9585
7.3839	-0.34317	2.6219	-0.21961	-1.0207	0.081783	2.5476	-6.8486	715.6447	-45.585	288.4983	39.6673	604.7946	-0.0592	0.0182	-0.0073	-0.0462	0.0165	0.9585
7.396	-0.5357	2.5484	-0.2445	-0.97212	0.03851	2.495	-4.5106	727.2332	-46.0916	293.4932	38.8133	609.3447	-0.0592	0.0182	-0.0073	-0.0462	0.0165	0.9585
7.4081	-0.76694	2.2845	-0.28801	-0.85377	-0.013992	2.2507	-2.3917	738.9677	-46.7028	298.5461	38.136	614.0058	-0.0592	0.0182	-0.0073	-0.0462	0.0165	0.9585
7.4201	-1.0062	1.7364	-0.33243	-0.63534	-0.081848	1.7151	-0.50207	749.5131	-47.3241	303.1118	37.5501	617.7204	-0.0592	0.0182	-0.0073	-0.0462	0.0165	0.9585
